<?xml version="1.0" encoding="UTF-8"?>
<svg xmlns="http://www.w3.org/2000/svg" xmlns:xlink="http://www.w3.org/1999/xlink" viewBox="0 0 50 50" width="50px" height="50px">
<g id="surface145225497">
<path style=" stroke:none;fill-rule:nonzero;fill:rgb(100%,100%,100%);fill-opacity:1;" d="M 25 2 C 18 2 14.90625 5.519531 14.90625 5.519531 C 14.34375 5.195312 13.699219 5 13 5 C 10.789062 5 9 6.789062 9 9 C 9 10.863281 10.277344 12.417969 12 12.863281 L 12 22.878906 L 8.4375 26.441406 C 7.851562 27.027344 7.851562 27.972656 8.4375 28.5625 C 8.734375 28.855469 9.117188 29 9.5 29 C 9.882812 29 10.265625 28.855469 10.5625 28.5625 L 11.902344 27.21875 C 11.652344 29.894531 11 31.152344 11 36 C 11 38.527344 12.222656 41.242188 14.539062 43.339844 L 12.441406 45.4375 C 11.851562 46.027344 11.851562 46.972656 12.441406 47.558594 C 12.734375 47.855469 13.117188 48 13.5 48 C 13.882812 48 14.265625 47.855469 14.5625 47.558594 L 17.03125 45.089844 C 19.164062 46.261719 21.828125 47 25 47 C 28.171875 47 30.835938 46.261719 32.972656 45.089844 L 35.441406 47.558594 C 35.730469 47.855469 36.117188 48 36.5 48 C 36.882812 48 37.265625 47.855469 37.5625 47.558594 C 38.148438 46.972656 38.148438 46.027344 37.5625 45.4375 L 35.460938 43.339844 C 37.777344 41.242188 39 38.527344 39 36 C 39 31.152344 38.347656 29.894531 38.097656 27.21875 L 39.441406 28.5625 C 39.734375 28.855469 40.117188 29 40.5 29 C 40.882812 29 41.265625 28.855469 41.5625 28.5625 C 42.144531 27.972656 42.144531 27.027344 41.5625 26.441406 L 38 22.878906 L 38 12.863281 C 39.722656 12.417969 41 10.863281 41 9 C 41 6.789062 39.210938 5 37 5 C 36.300781 5 35.65625 5.195312 35.09375 5.519531 C 35.09375 5.519531 32 2 25 2 Z M 13 8 C 13.300781 8 13.550781 8.140625 13.730469 8.351562 C 13.421875 8.863281 13.167969 9.414062 12.980469 9.996094 C 12.4375 9.984375 12 9.546875 12 9 C 12 8.449219 12.449219 8 13 8 Z M 37 8 C 37.550781 8 38 8.449219 38 9 C 38 9.546875 37.5625 9.984375 37.019531 9.996094 C 36.832031 9.414062 36.578125 8.863281 36.269531 8.351562 C 36.449219 8.140625 36.699219 8 37 8 Z M 19.5 9 C 21.433594 9.003906 23 10.570312 22.996094 12.5 C 22.996094 14.433594 21.429688 16 19.496094 16 C 17.667969 16 16.1875 14.589844 16.03125 12.800781 C 16.171875 13.484375 16.777344 14 17.5 14 C 18.328125 14 19 13.328125 19 12.5 C 19 11.671875 18.328125 11 17.5 11 C 16.777344 11 16.171875 11.515625 16.03125 12.199219 C 16.1875 10.40625 17.671875 9 19.5 9.003906 Z M 30.5 9 C 32.433594 9.003906 34 10.570312 34 12.5 C 33.996094 14.433594 32.429688 16 30.496094 16 C 28.5625 16 26.996094 14.429688 27 12.5 C 27 10.566406 28.566406 9 30.5 9.003906 Z M 28.5 11 C 27.671875 11 27 11.671875 27 12.5 C 27 13.328125 27.671875 14 28.5 14 C 29.328125 14 30 13.328125 30 12.5 C 30 11.671875 29.328125 11 28.5 11 Z M 25 16 C 26.105469 16 27 16.449219 27 17 C 27 17.550781 26.105469 18 25 18 C 23.894531 18 23 17.550781 23 17 C 23 16.449219 23.894531 16 25 16 Z M 28.503906 18.488281 C 28.8125 18.953125 29 19.472656 29 20 C 29 20.5 29 22 25 22 C 21 22 21 20.5 21 20 C 21 19.476562 21.1875 18.953125 21.492188 18.492188 C 22.152344 19.414062 23.425781 20 25 20 C 26.578125 20 27.851562 19.414062 28.503906 18.488281 Z M 23 23.84375 C 23.582031 23.941406 24.238281 24 25 24 C 25.761719 24 26.417969 23.941406 27 23.84375 L 27 25 C 27 25.554688 26.550781 26 26 26 C 25.449219 26 25 25.554688 25 25 C 25 25.554688 24.550781 26 24 26 C 23.449219 26 23 25.554688 23 25 Z M 23 23.84375 "/>
</g>
</svg>
